<svg width="377" height="99" viewBox="0 0 377 99" fill="none" xmlns="http://www.w3.org/2000/svg">
<g clip-path="url(#clip0_2255_3070)">
<path d="M49.0852 0.0253906C37.0837 0.0253906 26.0885 4.33268 17.561 11.4845C17.0333 11.9275 17.3426 12.7877 18.0322 12.7877H80.1395C80.8291 12.7877 81.1384 11.9275 80.6107 11.4845C72.082 4.33268 61.0868 0.0253906 49.0852 0.0253906Z" fill="#1400FF"/>
<path d="M0 49.1106C0 61.1121 4.30729 72.1074 11.4591 80.6349C11.9021 81.1625 12.7624 80.8533 12.7624 80.1636V18.0576C12.7624 17.3679 11.9021 17.0587 11.4591 17.5864C4.30729 26.1138 0 37.1091 0 49.1106Z" fill="#1400FF"/>
<path d="M49.0852 98.2018C61.0868 98.2018 72.082 93.8945 80.6095 86.7427C81.1371 86.2997 80.8279 85.4395 80.1382 85.4395H18.0322C17.3426 85.4395 17.0333 86.2997 17.561 86.7427C26.0885 93.8957 37.0837 98.2018 49.0852 98.2018Z" fill="#1400FF"/>
<path d="M49.0843 14.5879C40.8685 14.5879 33.3228 17.4594 27.3969 22.2539C26.8594 22.6895 27.1711 23.5608 27.8632 23.5608H70.3054C70.9975 23.5608 71.3104 22.6895 70.7717 22.2539C64.8458 17.4594 57.3001 14.5879 49.0843 14.5879Z" fill="#1400FF"/>
<path d="M14.5769 49.099C14.5769 57.3148 17.4484 64.8605 22.2429 70.7864C22.6785 71.3239 23.5498 71.0122 23.5498 70.3201V27.8779C23.5498 27.1858 22.6785 26.8729 22.2429 27.4116C17.4484 33.3375 14.5769 40.8833 14.5769 49.099Z" fill="#1400FF"/>
<path d="M49.0849 83.594C57.3006 83.594 64.8464 80.7225 70.7723 75.928C71.3098 75.4924 70.9981 74.6211 70.3059 74.6211H27.8638C27.1716 74.6211 26.8587 75.4924 27.3974 75.928C33.3233 80.7225 40.8691 83.594 49.0849 83.594Z" fill="#1400FF"/>
<path d="M49.0876 24.8574C43.5495 24.8574 38.4445 26.7153 34.3618 29.8409C33.8047 30.2679 34.1102 31.1601 34.8121 31.1601H63.363C64.0649 31.1601 64.3705 30.2679 63.8134 29.8409C59.7306 26.7153 54.6269 24.8574 49.0876 24.8574Z" fill="#1400FF"/>
<path d="M24.8447 49.1096C24.8447 54.6477 26.7026 59.7526 29.8282 63.8353C30.2552 64.3925 31.1474 64.0869 31.1474 63.385V34.8341C31.1474 34.1322 30.2552 33.8266 29.8282 34.3838C26.7026 38.4665 24.8447 43.5702 24.8447 49.1096Z" fill="#1400FF"/>
<path d="M49.0876 73.3437C54.6257 73.3437 59.7306 71.4858 63.8134 68.3602C64.3705 67.9332 64.0649 67.041 63.363 67.041H34.8121C34.1102 67.041 33.8047 67.9332 34.3618 68.3602C38.4445 71.4858 43.5482 73.3437 49.0876 73.3437Z" fill="#1400FF"/>
</g>
<path d="M364.774 62.4785V39.6893H357.113V35.3945H377V39.6893H369.339V62.4785H364.774Z" fill="#1400FF"/>
<path d="M346.408 62.8676C340.566 62.8676 336.696 59.4628 336.348 54.0073H340.875C341.146 56.7543 343.235 58.4955 346.408 58.4955C349.813 58.4955 351.825 57.0639 351.825 54.7424C351.825 52.5757 350.161 51.3762 345.789 50.6798C339.946 49.7512 336.851 47.3523 336.851 42.8641C336.851 38.1825 340.72 35.0098 346.292 35.0098C351.825 35.0098 355.462 38.1825 356.042 43.135H351.476C351.012 40.5813 349.116 39.3432 346.214 39.3432C343.235 39.3432 341.417 40.6587 341.417 42.7867C341.417 44.8761 342.81 45.8434 347.298 46.5785C353.295 47.5458 356.468 50.1381 356.468 54.665C356.468 59.6562 352.366 62.8676 346.408 62.8676Z" fill="#1400FF"/>
<path d="M317.654 62.4785V35.3945H334.252V39.728H322.181V46.6537H333.479V50.9485H322.181V58.1064H334.523V62.4785H317.654Z" fill="#1400FF"/>
<path d="M299.314 62.4785V35.3945H315.294V39.728H303.841V47.1567H314.288V51.4515H303.841V62.4785H299.314Z" fill="#1400FF"/>
<path d="M258.099 62.4785V35.3945H261.658L271.177 49.13L280.617 35.3945H284.177V62.4785H279.611V44.2162L272.415 54.5468H269.9L262.626 44.1775V62.4785H258.099Z" fill="#1400FF"/>
<path d="M238.062 62.4785V35.3945H242.589V58.1064H255.009V62.4785H238.062Z" fill="#1400FF"/>
<path d="M220.619 62.4785V58.2999H225.301V39.4958H220.696V35.3945H234.47V39.4958H229.866V58.2999H234.548V62.4785H220.619Z" fill="#1400FF"/>
<path d="M202.087 62.4785V35.3945H218.067V39.728H206.614V47.1567H217.061V51.4515H206.614V62.4785H202.087Z" fill="#1400FF"/>
<path d="M171.567 62.4785V35.3945H188.165V39.728H176.094V46.6537H187.391V50.9485H176.094V58.1064H188.436V62.4785H171.567Z" fill="#1400FF"/>
<path d="M156.849 62.4785V39.6893H149.188V35.3945H169.075V39.6893H161.414V62.4785H156.849Z" fill="#1400FF"/>
<path d="M128.746 62.4785V62.0142L139.424 35.3945H142.945L153.624 62.0142V62.4785H148.865L146.66 56.6748H135.71L133.466 62.4785H128.746ZM137.219 52.5735H145.151L141.166 42.2816L137.219 52.5735Z" fill="#1400FF"/>
<path d="M100.089 62.4785V35.3945H103.649L113.167 49.13L122.608 35.3945H126.167V62.4785H121.602V44.2162L114.405 54.5468H111.89L104.616 44.1775V62.4785H100.089Z" fill="#1400FF"/>
<path d="M83.8083 62.4785V58.2999H88.49V39.4958H83.8857V35.3945H97.6599V39.4958H93.0556V58.2999H97.7373V62.4785H83.8083Z" fill="#1400FF"/>
<path d="M64.3508 62.4785V35.3945H68.8777V58.1064H81.2977V62.4785H64.3508Z" fill="#1400FF"/>
<path d="M48.9033 62.8676C41.0877 62.8676 35.3613 56.9865 35.3613 48.9387C35.3613 40.8909 41.0877 35.0098 48.9033 35.0098C55.4422 35.0098 60.6268 38.995 62.0584 45.1856H57.3768C56.1773 41.6647 53.0046 39.4593 49.0194 39.4593C43.7574 39.4593 40.043 43.3671 40.043 48.9387C40.043 54.5102 43.7574 58.4181 49.0194 58.4181C53.0433 58.4181 56.2547 56.0966 57.4928 52.4209H62.0971C60.7042 58.7663 55.4809 62.8676 48.9033 62.8676Z" fill="#1400FF"/>
<defs>
<clipPath id="clip0_2255_3070">
<rect width="80.8765" height="98.172" fill="white"/>
</clipPath>
</defs>
</svg>
