<?xml version="1.0" encoding="UTF-8"?>
<svg id="Layer_1" xmlns="http://www.w3.org/2000/svg" version="1.1" viewBox="0 0 124 124">
  <!-- Generator: Adobe Illustrator 29.7.1, SVG Export Plug-In . SVG Version: 2.1.1 Build 8)  -->
  <defs>
    <style>
      .st0 {
        fill: #fff;
      }
    </style>
  </defs>
  <path class="st0" d="M62,0c-15.2,0-29,5.4-39.8,14.5-.7.6-.3,1.6.6,1.6h78.4c.9,0,1.3-1.1.6-1.6C91,5.4,77.2,0,62,0Z"/>
  <path class="st0" d="M62,18.4c-10.4,0-19.9,3.6-27.4,9.7-.7.6-.3,1.7.6,1.7h53.6c.9,0,1.3-1.1.6-1.7-7.5-6.1-17-9.7-27.4-9.7Z"/>
  <path class="st0" d="M62,31.4c-7,0-13.4,2.3-18.6,6.3-.7.5-.3,1.7.6,1.7h36.1c.9,0,1.3-1.1.6-1.7-5.2-3.9-11.6-6.3-18.6-6.3Z"/>
  <path class="st0" d="M62,124c15.2,0,29-5.4,39.8-14.5.7-.6.3-1.6-.6-1.6H22.8c-.9,0-1.3,1.1-.6,1.6,10.8,9,24.7,14.5,39.8,14.5Z"/>
  <path class="st0" d="M62,105.6c10.4,0,19.9-3.6,27.4-9.7.7-.6.3-1.7-.6-1.7h-53.6c-.9,0-1.3,1.1-.6,1.7,7.5,6.1,17,9.7,27.4,9.7Z"/>
  <path class="st0" d="M62,92.6c7,0,13.4-2.3,18.6-6.3.7-.5.3-1.7-.6-1.7h-36.1c-.9,0-1.3,1.1-.6,1.7,5.2,3.9,11.6,6.3,18.6,6.3Z"/>
  <path class="st0" d="M0,62c0,15.2,5.4,29,14.5,39.8.6.7,1.6.3,1.6-.6V22.8c0-.9-1.1-1.3-1.6-.6C5.4,33,0,46.8,0,62Z"/>
  <path class="st0" d="M18.4,62c0,10.4,3.6,19.9,9.7,27.4.6.7,1.7.3,1.7-.6v-53.6c0-.9-1.1-1.3-1.7-.6-6.1,7.5-9.7,17-9.7,27.4Z"/>
  <path class="st0" d="M31.4,62c0,7,2.3,13.4,6.3,18.6.5.7,1.7.3,1.7-.6v-36.1c0-.9-1.1-1.3-1.7-.6-3.9,5.2-6.3,11.6-6.3,18.6Z"/>
</svg>